<svg xmlns="http://www.w3.org/2000/svg" xmlns:xlink="http://www.w3.org/1999/xlink" xmlns:lucid="lucid" width="1760" height="1360"><g transform="translate(0 0)" lucid:page-tab-id="0_0"><path d="M72 561c0 11.05-8.95 20-20 20s-20-8.95-20-20 8.95-20 20-20 20 8.95 20 20z" stroke="#000" stroke-width="2"/><path d="M73 561h107.76" stroke="#000" stroke-width="2" fill="none"/><path d="M73 562h-1.13l.13-1-.04-1H73zM195.76 561l-14.26 4.64v-9.28z"/><path d="M199 561l-18.5 6v-12zm-16.5 3.26l10.03-3.26-10.03-3.26z"/><path d="M216 521c-8.84 0-16 7.16-16 16v48c0 8.84 7.16 16 16 16h128c8.84 0 16-7.16 16-16v-48c0-8.84-7.16-16-16-16z" stroke="#000" stroke-width="2" fill="#fff"/><use xlink:href="#a" transform="matrix(1,0,0,1,208,529) translate(10.049999999999997 35.6)"/><use xlink:href="#b" transform="matrix(1,0,0,1,208,529) translate(68.95 35.6)"/><path d="M476 441c-8.84 0-16 7.16-16 16v48c0 8.84 7.16 16 16 16h128c8.84 0 16-7.16 16-16v-48c0-8.84-7.16-16-16-16z" stroke="#000" stroke-width="2" fill="#fff"/><use xlink:href="#c" transform="matrix(1,0,0,1,468,449) translate(17.599999999999994 24.799999999999997)"/><use xlink:href="#d" transform="matrix(1,0,0,1,468,449) translate(55.449999999999996 24.799999999999997)"/><use xlink:href="#e" transform="matrix(1,0,0,1,468,449) translate(114.4 24.799999999999997)"/><use xlink:href="#f" transform="matrix(1,0,0,1,468,449) translate(38.05 46.4)"/><path d="M476 601c-8.84 0-16 7.16-16 16v48c0 8.84 7.16 16 16 16h128c8.84 0 16-7.16 16-16v-48c0-8.84-7.16-16-16-16z" stroke="#000" stroke-width="2" fill="#fff"/><use xlink:href="#g" transform="matrix(1,0,0,1,468,609) translate(9.024999999999999 35.6)"/><use xlink:href="#h" transform="matrix(1,0,0,1,468,609) translate(71.975 35.6)"/><path d="M416.46 544.54c1.96-1.96 5.12-1.96 7.08 0l12.92 12.92c1.96 1.96 1.96 5.12 0 7.08l-12.92 12.92c-1.96 1.96-5.12 1.96-7.08 0l-12.92-12.92c-1.96-1.96-1.96-5.12 0-7.08z" stroke="#000" stroke-width="2" fill="#fff"/><path d="M361 561h21.9" stroke="#000" stroke-width="2" fill="none"/><path d="M361 562h-1v-2h1zM397.9 561l-14.25 4.64v-9.28z"/><path d="M401.15 561l-18.5 6v-12zm-16.5 3.26l10.03-3.26-10.03-3.26z"/><path d="M420 542.15V486c0-2.76 2.24-5 5-5h15.76" stroke="#000" stroke-width="2" fill="none"/><path d="M421 543.26l-.5-.16-1.5.17v-1.12h2zM455.76 481l-14.26 4.64v-9.28z"/><path d="M459 481l-18.5 6v-12zm-16.5 3.26l10.03-3.26-10.03-3.26z"/><path d="M420 579.85V636c0 2.76 2.24 5 5 5h15.76" stroke="#000" stroke-width="2" fill="none"/><path d="M421 579.85h-2v-1.1l.5.15 1.5-.17zM455.76 641l-14.26 4.64v-9.28z"/><path d="M459 641l-18.5 6v-12zm-16.5 3.26l10.03-3.26-10.03-3.26z"/><path d="M736 441c-8.84 0-16 7.16-16 16v48c0 8.84 7.16 16 16 16h128c8.84 0 16-7.16 16-16v-48c0-8.84-7.16-16-16-16z" stroke="#000" stroke-width="2" fill="#fff"/><use xlink:href="#i" transform="matrix(1,0,0,1,728,449) translate(51.125 24.799999999999997)"/><use xlink:href="#j" transform="matrix(1,0,0,1,728,449) translate(78.925 24.799999999999997)"/><use xlink:href="#k" transform="matrix(1,0,0,1,728,449) translate(-8.899999999999991 46.4)"/><path d="M621 481h79.76" stroke="#000" stroke-width="2" fill="none"/><path d="M621 482h-1v-2h1zM715.76 481l-14.26 4.64v-9.28z"/><path d="M719 481l-18.5 6v-12zm-16.5 3.26l10.03-3.26-10.03-3.26z"/><path d="M976.46 464.54c1.96-1.96 5.12-1.96 7.08 0l12.92 12.92c1.96 1.96 1.96 5.12 0 7.08l-12.92 12.92c-1.96 1.96-5.12 1.96-7.08 0l-12.92-12.92c-1.96-1.96-1.96-5.12 0-7.08z" stroke="#000" stroke-width="2" fill="#fff"/><path d="M942.9 482H881v-2h61.9zM881 482h-1v-2h1zM957.9 481l-14.25 4.64v-9.28z"/><path d="M961.15 481l-18.5 6v-12zm-16.5 3.26l10.03-3.26-10.03-3.26zM981 462.15h-2V410.8h2zm-180-40.4h-2V410.8h2zM981 463.26l-.5-.16-1.5.17v-1.12h2zM800 436.76l-4.64-14.26h9.28z"/><path d="M800 440l-6-18.5h12zm-3.26-16.5l3.26 10.03 3.26-10.03z"/><use xlink:href="#l" transform="matrix(1,0,0,1,797.2742116629363,389.2) translate(0 14.4)"/><use xlink:href="#m" transform="matrix(1,0,0,1,797.2742116629363,389.2) translate(37.85 14.4)"/><use xlink:href="#n" transform="matrix(1,0,0,1,797.2742116629363,389.2) translate(58.8 14.4)"/><use xlink:href="#o" transform="matrix(1,0,0,1,797.2742116629363,389.2) translate(140.7 14.4)"/><use xlink:href="#p" transform="matrix(1,0,0,1,797.2742116629363,389.2) translate(170.7 14.4)"/><path d="M1023.23 482h-24.38v-2h24.38zm79.68 0h-6.13v-2h6.14zM998.85 482h-1.1l.15-.5-.17-1.5h1.12zM1117.9 481l-14.25 4.64v-9.28z"/><path d="M1121.15 481l-18.5 6v-12zm-16.5 3.26l10.03-3.26-10.03-3.26z"/><use xlink:href="#q" transform="matrix(1,0,0,1,1023.225,470.2) translate(0 14.4)"/><path d="M1136.46 464.54c1.96-1.96 5.12-1.96 7.08 0l12.92 12.92c1.96 1.96 1.96 5.12 0 7.08l-12.92 12.92c-1.96 1.96-5.12 1.96-7.08 0l-12.92-12.92c-1.96-1.96-1.96-5.12 0-7.08z" stroke="#000" stroke-width="2" fill="#fff"/><path d="M1001 557.16l-1.1 3.4-2.92 2.13-1.9.3H804.84l-3.4-1.1-2.13-2.92-.3-1.9v-16.84h2v16.68l.2 1.26 1.46 2 2.5.82h189.76l1.26-.2 2-1.46.82-2.5v-23.97h2zm135.98-135.7l2.9 2.12 1.12 3.4v35.17h-2V427.3l-.82-2.5-2-1.45-1.26-.2h-129.76l-2.5.8-1.46 2-.2 1.28v84.04h-2v-84.2l.3-1.9 2.13-2.9 3.4-1.12h130.25z"/><path d="M1141 463.26l-.5-.16-1.5.17v-1.12h2zM804.64 539.5h-9.28l4.64-14.26z"/><path d="M806 540.5h-12l6-18.5zm-9.26-2h6.52L800 528.47z"/><use xlink:href="#l" transform="matrix(1,0,0,1,925.15,511.27421166293624) translate(0 14.4)"/><use xlink:href="#r" transform="matrix(1,0,0,1,925.15,511.27421166293624) translate(37.85 14.4)"/><use xlink:href="#s" transform="matrix(1,0,0,1,925.15,511.27421166293624) translate(101.75 14.4)"/><use xlink:href="#t" transform="matrix(1,0,0,1,925.15,511.27421166293624) translate(120.7 14.4)"/><path d="M1436 521c-8.84 0-16 7.16-16 16v48c0 8.84 7.16 16 16 16h128c8.84 0 16-7.16 16-16v-48c0-8.84-7.16-16-16-16z" stroke="#000" stroke-width="2" fill="#fff"/><use xlink:href="#u" transform="matrix(1,0,0,1,1428,529) translate(10.574999999999996 24.799999999999997)"/><use xlink:href="#v" transform="matrix(1,0,0,1,1428,529) translate(60.525 24.799999999999997)"/><use xlink:href="#j" transform="matrix(1,0,0,1,1428,529) translate(119.475 24.799999999999997)"/><use xlink:href="#w" transform="matrix(1,0,0,1,1428,529) translate(52 46.4)"/><path d="M1260 486c0-2.76 2.24-5 5-5h10c2.76 0 5 2.24 5 5v150c0 2.76-2.24 5-5 5h-10c-2.76 0-5-2.24-5-5z" stroke="#000" stroke-width="2"/><path d="M756 601c-8.84 0-16 7.16-16 16v48c0 8.84 7.16 16 16 16h128c8.84 0 16-7.16 16-16v-48c0-8.84-7.16-16-16-16z" stroke="#000" stroke-width="2" fill="#fff"/><use xlink:href="#x" transform="matrix(1,0,0,1,748,609) translate(15.375 35.6)"/><use xlink:href="#y" transform="matrix(1,0,0,1,748,609) translate(90.725 35.6)"/><path d="M621 641h99.76" stroke="#000" stroke-width="2" fill="none"/><path d="M621 642h-1v-2h1zM735.76 641l-14.26 4.64v-9.28z"/><path d="M739 641l-18.5 6v-12zm-16.5 3.26l10.03-3.26-10.03-3.26z"/><path d="M1056.46 624.54c1.96-1.96 5.12-1.96 7.08 0l12.92 12.92c1.96 1.96 1.96 5.12 0 7.08l-12.92 12.92c-1.96 1.96-5.12 1.96-7.08 0l-12.92-12.92c-1.96-1.96-1.96-5.12 0-7.08z" stroke="#000" stroke-width="2" fill="#fff"/><path d="M901 641h121.9" stroke="#000" stroke-width="2" fill="none"/><path d="M901 642h-1v-2h1zM1037.9 641l-14.25 4.64v-9.28z"/><path d="M1041.15 641l-18.5 6v-12zm-16.5 3.26l10.03-3.26-10.03-3.26zM281 694.77l.2 1.27 1.46 2 2.5.8h270v2H284.85l-3.4-1.1-2.13-2.9-.3-1.9v-74.7h2zm780 .24l-1.1 3.42-2.92 2.13-1.9.3h-328.1v-2h327.94l1.26-.2 2-1.46.82-2.5v-34.85h2z"/><path d="M1061 659.85h-2v-1.1l.5.15 1.5-.17zM284.64 619.5h-9.28l4.64-14.26z"/><path d="M286 620.5h-12l6-18.5zm-9.26-2h6.52L280 608.47z"/><g><use xlink:href="#z" transform="matrix(1,0,0,1,555.1742116629363,689.0515766741274) translate(0 14.4)"/><use xlink:href="#A" transform="matrix(1,0,0,1,555.1742116629363,689.0515766741274) translate(53.85 14.4)"/><use xlink:href="#B" transform="matrix(1,0,0,1,555.1742116629363,689.0515766741274) translate(73.85 14.4)"/></g><path d="M1170.43 636.08l-.3 1.9-2.13 2.9-3.42 1.12h-85.73v-2h85.42l2.5-.82 1.45-2 .2-1.26v-4.12h2zm71.33-34.08h-67.25l-1.26.2-2 1.46-.8 2.5v4.04h-2v-4.36l1.1-3.4 2.9-2.13 1.9-.3h67.42zM1078.85 642h-1.1l.15-.5-.17-1.5h1.12zM1256.76 601l-14.26 4.64v-9.28z"/><path d="M1260 601l-18.5 6v-12zm-16.5 3.26l10.03-3.26-10.03-3.26z"/><g><use xlink:href="#q" transform="matrix(1,0,0,1,1132.6507883370637,610.2) translate(0 14.4)"/></g><path d="M1210.43 515.84l.8 2.5 2 1.46 1.28.2h27.26v2h-27.4l-1.9-.3-2.92-2.13-1.1-3.4v-4.37h2zM1208 481.1l2.12 2.92.3 1.9v4.28h-2v-4.12l-.2-1.26-1.46-2-2.5-.82h-45.4v-2h45.72zM1158.85 482h-1.1l.15-.5-.17-1.5h1.12zM1256.76 521l-14.26 4.64v-9.28z"/><path d="M1260 521l-18.5 6v-12zm-16.5 3.26l10.03-3.26-10.03-3.26z"/><g><use xlink:href="#q" transform="matrix(1,0,0,1,1172.6507883370637,490.2) translate(0 14.4)"/></g><path d="M1281 561h119.76" stroke="#000" stroke-width="2" fill="none"/><path d="M1281 562h-1v-2h1zM1415.76 561l-14.26 4.64v-9.28z"/><path d="M1419 561l-18.5 6v-12zm-16.5 3.26l10.03-3.26-10.03-3.26z"/><path d="M40 245c0-2.76 2.24-5 5-5h530c2.76 0 5 2.24 5 5v150c0 2.76-2.24 5-5 5H45c-2.76 0-5-2.24-5-5z" fill="none"/><g><use xlink:href="#C" transform="matrix(1,0,0,1,40,240) translate(40.55555555555554 93.83333333333334)"/><use xlink:href="#D" transform="matrix(1,0,0,1,40,240) translate(258.7037037037037 93.83333333333334)"/></g><defs><path d="M212-179c-10-28-35-45-73-45-59 0-87 40-87 99 0 60 29 101 89 101 43 0 62-24 78-52l27 14C228-24 195 4 139 4 59 4 22-46 18-125c-6-104 99-153 187-111 19 9 31 26 39 46" id="E"/><path d="M114-163C36-179 61-72 57 0H25l-1-190h30c1 12-1 29 2 39 6-27 23-49 58-41v29" id="F"/><path d="M100-194c63 0 86 42 84 106H49c0 40 14 67 53 68 26 1 43-12 49-29l28 8c-11 28-37 45-77 45C44 4 14-33 15-96c1-61 26-98 85-98zm52 81c6-60-76-77-97-28-3 7-6 17-6 28h103" id="G"/><path d="M141-36C126-15 110 5 73 4 37 3 15-17 15-53c-1-64 63-63 125-63 3-35-9-54-41-54-24 1-41 7-42 31l-33-3c5-37 33-52 76-52 45 0 72 20 72 64v82c-1 20 7 32 28 27v20c-31 9-61-2-59-35zM48-53c0 20 12 33 32 33 41-3 63-29 60-74-43 2-92-5-92 41" id="H"/><path d="M59-47c-2 24 18 29 38 22v24C64 9 27 4 27-40v-127H5v-23h24l9-43h21v43h35v23H59v120" id="I"/><g id="a"><use transform="matrix(0.05,0,0,0.05,0,0)" xlink:href="#E"/><use transform="matrix(0.05,0,0,0.05,12.950000000000001,0)" xlink:href="#F"/><use transform="matrix(0.05,0,0,0.05,18.900000000000002,0)" xlink:href="#G"/><use transform="matrix(0.05,0,0,0.05,28.900000000000002,0)" xlink:href="#H"/><use transform="matrix(0.05,0,0,0.05,38.900000000000006,0)" xlink:href="#I"/><use transform="matrix(0.05,0,0,0.05,43.900000000000006,0)" xlink:href="#G"/></g><path d="M205 0l-28-72H64L36 0H1l101-248h38L239 0h-34zm-38-99l-47-123c-12 45-31 82-46 123h93" id="J"/><path d="M96-169c-40 0-48 33-48 73s9 75 48 75c24 0 41-14 43-38l32 2c-6 37-31 61-74 61-59 0-76-41-82-99-10-93 101-131 147-64 4 7 5 14 7 22l-32 3c-4-21-16-35-41-35" id="K"/><path d="M100-194c62-1 85 37 85 99 1 63-27 99-86 99S16-35 15-95c0-66 28-99 85-99zM99-20c44 1 53-31 53-75 0-43-8-75-51-75s-53 32-53 75 10 74 51 75" id="L"/><path d="M84 4C-5 8 30-112 23-190h32v120c0 31 7 50 39 49 72-2 45-101 50-169h31l1 190h-30c-1-10 1-25-2-33-11 22-28 36-60 37" id="M"/><path d="M117-194c89-4 53 116 60 194h-32v-121c0-31-8-49-39-48C34-167 62-67 57 0H25l-1-190h30c1 10-1 24 2 32 11-22 29-35 61-36" id="N"/><g id="b"><use transform="matrix(0.05,0,0,0.05,0,0)" xlink:href="#J"/><use transform="matrix(0.05,0,0,0.05,12,0)" xlink:href="#K"/><use transform="matrix(0.05,0,0,0.05,21,0)" xlink:href="#K"/><use transform="matrix(0.05,0,0,0.05,30,0)" xlink:href="#L"/><use transform="matrix(0.05,0,0,0.05,40,0)" xlink:href="#M"/><use transform="matrix(0.05,0,0,0.05,50,0)" xlink:href="#N"/><use transform="matrix(0.05,0,0,0.05,60,0)" xlink:href="#I"/></g><path d="M240 0l2-218c-23 76-54 145-80 218h-23L58-218 59 0H30v-248h44l77 211c21-75 51-140 76-211h43V0h-30" id="O"/><path d="M24-231v-30h32v30H24zM24 0v-190h32V0H24" id="P"/><path d="M24 0v-261h32V0H24" id="Q"/><g id="c"><use transform="matrix(0.05,0,0,0.05,0,0)" xlink:href="#O"/><use transform="matrix(0.05,0,0,0.05,14.950000000000001,0)" xlink:href="#H"/><use transform="matrix(0.05,0,0,0.05,24.950000000000003,0)" xlink:href="#P"/><use transform="matrix(0.05,0,0,0.05,28.900000000000002,0)" xlink:href="#Q"/></g><path d="M85-194c31 0 48 13 60 33l-1-100h32l1 261h-30c-2-10 0-23-3-31C134-8 116 4 85 4 32 4 16-35 15-94c0-66 23-100 70-100zm9 24c-40 0-46 34-46 75 0 40 6 74 45 74 42 0 51-32 51-76 0-42-9-74-50-73" id="R"/><path d="M135-143c-3-34-86-38-87 0 15 53 115 12 119 90S17 21 10-45l28-5c4 36 97 45 98 0-10-56-113-15-118-90-4-57 82-63 122-42 12 7 21 19 24 35" id="S"/><g id="d"><use transform="matrix(0.05,0,0,0.05,0,0)" xlink:href="#H"/><use transform="matrix(0.05,0,0,0.05,10,0)" xlink:href="#R"/><use transform="matrix(0.05,0,0,0.05,20,0)" xlink:href="#F"/><use transform="matrix(0.05,0,0,0.05,25.950000000000003,0)" xlink:href="#G"/><use transform="matrix(0.05,0,0,0.05,35.95,0)" xlink:href="#S"/><use transform="matrix(0.05,0,0,0.05,44.95,0)" xlink:href="#S"/></g><path d="M234-2c-28 10-62 0-77-18C117 19 8 12 13-65c3-43 29-61 60-76-25-40-17-114 47-108 35 3 59 15 59 50 0 44-40 53-71 69 14 26 32 50 51 72 14-21 24-43 30-72l26 8c-9 33-21 57-38 82 13 13 33 22 57 15v23zM97-151c25-10 52-18 56-48-1-18-13-29-33-29-42 0-39 50-23 77zM42-66c-3 51 71 58 98 28-20-24-41-51-56-80-23 10-40 24-42 52" id="T"/><use transform="matrix(0.05,0,0,0.05,0,0)" xlink:href="#T" id="e"/><path d="M115-194c55 1 70 41 70 98S169 2 115 4C84 4 66-9 55-30l1 105H24l-1-265h31l2 30c10-21 28-34 59-34zm-8 174c40 0 45-34 45-75s-6-73-45-74c-42 0-51 32-51 76 0 43 10 73 51 73" id="U"/><path d="M206 0h-36l-40-164L89 0H53L-1-190h32L70-26l43-164h34l41 164 42-164h31" id="V"/><g id="f"><use transform="matrix(0.05,0,0,0.05,0,0)" xlink:href="#U"/><use transform="matrix(0.05,0,0,0.05,10,0)" xlink:href="#H"/><use transform="matrix(0.05,0,0,0.05,20,0)" xlink:href="#S"/><use transform="matrix(0.05,0,0,0.05,29,0)" xlink:href="#V"/><use transform="matrix(0.05,0,0,0.05,41.95,0)" xlink:href="#L"/><use transform="matrix(0.05,0,0,0.05,51.95,0)" xlink:href="#F"/><use transform="matrix(0.05,0,0,0.05,57.900000000000006,0)" xlink:href="#R"/></g><path d="M143 4C61 4 22-44 18-125c-5-107 100-154 193-111 17 8 29 25 37 43l-32 9c-13-25-37-40-76-40-61 0-88 39-88 99 0 61 29 100 91 101 35 0 62-11 79-27v-45h-74v-28h105v86C228-13 192 4 143 4" id="W"/><path d="M177-190C167-65 218 103 67 71c-23-6-38-20-44-43l32-5c15 47 100 32 89-28v-30C133-14 115 1 83 1 29 1 15-40 15-95c0-56 16-97 71-98 29-1 48 16 59 35 1-10 0-23 2-32h30zM94-22c36 0 50-32 50-73 0-42-14-75-50-75-39 0-46 34-46 75s6 73 46 73" id="X"/><g id="g"><use transform="matrix(0.05,0,0,0.05,0,0)" xlink:href="#W"/><use transform="matrix(0.05,0,0,0.05,14,0)" xlink:href="#L"/><use transform="matrix(0.05,0,0,0.05,24,0)" xlink:href="#L"/><use transform="matrix(0.05,0,0,0.05,34,0)" xlink:href="#X"/><use transform="matrix(0.05,0,0,0.05,44,0)" xlink:href="#Q"/><use transform="matrix(0.05,0,0,0.05,47.95,0)" xlink:href="#G"/></g><g id="h"><use transform="matrix(0.05,0,0,0.05,0,0)" xlink:href="#H"/><use transform="matrix(0.05,0,0,0.05,10,0)" xlink:href="#K"/><use transform="matrix(0.05,0,0,0.05,19,0)" xlink:href="#K"/><use transform="matrix(0.05,0,0,0.05,28,0)" xlink:href="#L"/><use transform="matrix(0.05,0,0,0.05,38,0)" xlink:href="#M"/><use transform="matrix(0.05,0,0,0.05,48,0)" xlink:href="#N"/><use transform="matrix(0.05,0,0,0.05,58,0)" xlink:href="#I"/></g><path d="M63-220v92h138v28H63V0H30v-248h175v28H63" id="Y"/><g id="i"><use transform="matrix(0.05,0,0,0.05,0,0)" xlink:href="#Y"/><use transform="matrix(0.05,0,0,0.05,10.950000000000001,0)" xlink:href="#P"/><use transform="matrix(0.05,0,0,0.05,14.9,0)" xlink:href="#Q"/><use transform="matrix(0.05,0,0,0.05,18.85,0)" xlink:href="#Q"/></g><g id="j"><use transform="matrix(0.05,0,0,0.05,0,0)" xlink:href="#P"/><use transform="matrix(0.05,0,0,0.05,3.95,0)" xlink:href="#N"/></g><path d="M210-169c-67 3-38 105-44 169h-31v-121c0-29-5-50-35-48C34-165 62-65 56 0H25l-1-190h30c1 10-1 24 2 32 10-44 99-50 107 0 11-21 27-35 58-36 85-2 47 119 55 194h-31v-121c0-29-5-49-35-48" id="Z"/><path d="M0 4l72-265h28L28 4H0" id="aa"/><g id="k"><use transform="matrix(0.05,0,0,0.05,0,0)" xlink:href="#M"/><use transform="matrix(0.05,0,0,0.05,10,0)" xlink:href="#S"/><use transform="matrix(0.05,0,0,0.05,19,0)" xlink:href="#G"/><use transform="matrix(0.05,0,0,0.05,29,0)" xlink:href="#F"/><use transform="matrix(0.05,0,0,0.05,34.95,0)" xlink:href="#N"/><use transform="matrix(0.05,0,0,0.05,44.95,0)" xlink:href="#H"/><use transform="matrix(0.05,0,0,0.05,54.95,0)" xlink:href="#Z"/><use transform="matrix(0.05,0,0,0.05,69.9,0)" xlink:href="#G"/><use transform="matrix(0.05,0,0,0.05,79.9,0)" xlink:href="#aa"/><use transform="matrix(0.05,0,0,0.05,84.9,0)" xlink:href="#U"/><use transform="matrix(0.05,0,0,0.05,94.9,0)" xlink:href="#H"/><use transform="matrix(0.05,0,0,0.05,104.9,0)" xlink:href="#S"/><use transform="matrix(0.05,0,0,0.05,113.9,0)" xlink:href="#S"/><use transform="matrix(0.05,0,0,0.05,122.9,0)" xlink:href="#V"/><use transform="matrix(0.05,0,0,0.05,135.85,0)" xlink:href="#L"/><use transform="matrix(0.05,0,0,0.05,145.85,0)" xlink:href="#F"/><use transform="matrix(0.05,0,0,0.05,151.79999999999998,0)" xlink:href="#R"/></g><g id="l"><use transform="matrix(0.05,0,0,0.05,0,0)" xlink:href="#Z"/><use transform="matrix(0.05,0,0,0.05,14.950000000000001,0)" xlink:href="#H"/><use transform="matrix(0.05,0,0,0.05,24.950000000000003,0)" xlink:href="#P"/><use transform="matrix(0.05,0,0,0.05,28.900000000000002,0)" xlink:href="#Q"/></g><g id="m"><use transform="matrix(0.05,0,0,0.05,0,0)" xlink:href="#L"/><use transform="matrix(0.05,0,0,0.05,10,0)" xlink:href="#F"/></g><g id="n"><use transform="matrix(0.05,0,0,0.05,0,0)" xlink:href="#U"/><use transform="matrix(0.05,0,0,0.05,10,0)" xlink:href="#H"/><use transform="matrix(0.05,0,0,0.05,20,0)" xlink:href="#S"/><use transform="matrix(0.05,0,0,0.05,29,0)" xlink:href="#S"/><use transform="matrix(0.05,0,0,0.05,38,0)" xlink:href="#V"/><use transform="matrix(0.05,0,0,0.05,50.95,0)" xlink:href="#L"/><use transform="matrix(0.05,0,0,0.05,60.95,0)" xlink:href="#F"/><use transform="matrix(0.05,0,0,0.05,66.9,0)" xlink:href="#R"/></g><g id="o"><use transform="matrix(0.05,0,0,0.05,0,0)" xlink:href="#N"/><use transform="matrix(0.05,0,0,0.05,10,0)" xlink:href="#L"/><use transform="matrix(0.05,0,0,0.05,20,0)" xlink:href="#I"/></g><path d="M108 0H70L1-190h34L89-25l56-165h34" id="ab"/><g id="p"><use transform="matrix(0.05,0,0,0.05,0,0)" xlink:href="#ab"/><use transform="matrix(0.05,0,0,0.05,9,0)" xlink:href="#H"/><use transform="matrix(0.05,0,0,0.05,19,0)" xlink:href="#Q"/><use transform="matrix(0.05,0,0,0.05,22.95,0)" xlink:href="#P"/><use transform="matrix(0.05,0,0,0.05,26.899999999999995,0)" xlink:href="#R"/></g><path d="M137 0h-34L2-248h35l83 218 83-218h36" id="ac"/><g id="q"><use transform="matrix(0.05,0,0,0.05,0,0)" xlink:href="#ac"/><use transform="matrix(0.05,0,0,0.05,10.65,0)" xlink:href="#H"/><use transform="matrix(0.05,0,0,0.05,20.65,0)" xlink:href="#Q"/><use transform="matrix(0.05,0,0,0.05,24.599999999999998,0)" xlink:href="#P"/><use transform="matrix(0.05,0,0,0.05,28.549999999999997,0)" xlink:href="#R"/><use transform="matrix(0.05,0,0,0.05,38.55,0)" xlink:href="#H"/><use transform="matrix(0.05,0,0,0.05,48.55,0)" xlink:href="#I"/><use transform="matrix(0.05,0,0,0.05,53.54999999999999,0)" xlink:href="#G"/><use transform="matrix(0.05,0,0,0.05,63.54999999999999,0)" xlink:href="#R"/></g><path d="M179-190L93 31C79 59 56 82 12 73V49c39 6 53-20 64-50L1-190h34L92-34l54-156h33" id="ad"/><g id="r"><use transform="matrix(0.05,0,0,0.05,0,0)" xlink:href="#H"/><use transform="matrix(0.05,0,0,0.05,10,0)" xlink:href="#Q"/><use transform="matrix(0.05,0,0,0.05,13.949999999999998,0)" xlink:href="#F"/><use transform="matrix(0.05,0,0,0.05,19.9,0)" xlink:href="#G"/><use transform="matrix(0.05,0,0,0.05,29.899999999999995,0)" xlink:href="#H"/><use transform="matrix(0.05,0,0,0.05,39.9,0)" xlink:href="#R"/><use transform="matrix(0.05,0,0,0.05,49.9,0)" xlink:href="#ad"/></g><g id="s"><use transform="matrix(0.05,0,0,0.05,0,0)" xlink:href="#P"/><use transform="matrix(0.05,0,0,0.05,3.95,0)" xlink:href="#N"/></g><g id="t"><use transform="matrix(0.05,0,0,0.05,0,0)" xlink:href="#M"/><use transform="matrix(0.05,0,0,0.05,10,0)" xlink:href="#S"/><use transform="matrix(0.05,0,0,0.05,19,0)" xlink:href="#G"/></g><path d="M185-189c-5-48-123-54-124 2 14 75 158 14 163 119 3 78-121 87-175 55-17-10-28-26-33-46l33-7c5 56 141 63 141-1 0-78-155-14-162-118-5-82 145-84 179-34 5 7 8 16 11 25" id="ae"/><path d="M106-169C34-169 62-67 57 0H25v-261h32l-1 103c12-21 28-36 61-36 89 0 53 116 60 194h-32v-121c2-32-8-49-39-48" id="af"/><g id="u"><use transform="matrix(0.05,0,0,0.05,0,0)" xlink:href="#ae"/><use transform="matrix(0.05,0,0,0.05,12,0)" xlink:href="#af"/><use transform="matrix(0.05,0,0,0.05,22,0)" xlink:href="#L"/><use transform="matrix(0.05,0,0,0.05,32,0)" xlink:href="#V"/></g><g id="v"><use transform="matrix(0.05,0,0,0.05,0,0)" xlink:href="#Q"/><use transform="matrix(0.05,0,0,0.05,3.95,0)" xlink:href="#L"/><use transform="matrix(0.05,0,0,0.05,13.949999999999998,0)" xlink:href="#X"/><use transform="matrix(0.05,0,0,0.05,23.95,0)" xlink:href="#X"/><use transform="matrix(0.05,0,0,0.05,33.95,0)" xlink:href="#G"/><use transform="matrix(0.05,0,0,0.05,43.95,0)" xlink:href="#R"/></g><g id="w"><use transform="matrix(0.05,0,0,0.05,0,0)" xlink:href="#U"/><use transform="matrix(0.05,0,0,0.05,10,0)" xlink:href="#H"/><use transform="matrix(0.05,0,0,0.05,20,0)" xlink:href="#X"/><use transform="matrix(0.05,0,0,0.05,30,0)" xlink:href="#G"/></g><path d="M47-170H22l-4-78h33" id="ag"/><g id="x"><use transform="matrix(0.05,0,0,0.05,0,0)" xlink:href="#W"/><use transform="matrix(0.05,0,0,0.05,14,0)" xlink:href="#L"/><use transform="matrix(0.05,0,0,0.05,24,0)" xlink:href="#L"/><use transform="matrix(0.05,0,0,0.05,34,0)" xlink:href="#X"/><use transform="matrix(0.05,0,0,0.05,44,0)" xlink:href="#Q"/><use transform="matrix(0.05,0,0,0.05,47.95,0)" xlink:href="#G"/><use transform="matrix(0.05,0,0,0.05,57.95,0)" xlink:href="#ag"/><use transform="matrix(0.05,0,0,0.05,61.35,0)" xlink:href="#S"/></g><g id="y"><use transform="matrix(0.05,0,0,0.05,0,0)" xlink:href="#Q"/><use transform="matrix(0.05,0,0,0.05,3.95,0)" xlink:href="#L"/><use transform="matrix(0.05,0,0,0.05,13.949999999999998,0)" xlink:href="#X"/><use transform="matrix(0.05,0,0,0.05,23.95,0)" xlink:href="#P"/><use transform="matrix(0.05,0,0,0.05,27.899999999999995,0)" xlink:href="#N"/></g><g id="z"><use transform="matrix(0.05,0,0,0.05,0,0)" xlink:href="#Y"/><use transform="matrix(0.05,0,0,0.05,10.950000000000001,0)" xlink:href="#H"/><use transform="matrix(0.05,0,0,0.05,20.950000000000003,0)" xlink:href="#P"/><use transform="matrix(0.05,0,0,0.05,24.900000000000002,0)" xlink:href="#Q"/><use transform="matrix(0.05,0,0,0.05,28.85,0)" xlink:href="#G"/><use transform="matrix(0.05,0,0,0.05,38.85,0)" xlink:href="#R"/></g><g id="A"><use transform="matrix(0.05,0,0,0.05,0,0)" xlink:href="#I"/><use transform="matrix(0.05,0,0,0.05,5,0)" xlink:href="#L"/></g><g id="B"><use transform="matrix(0.05,0,0,0.05,0,0)" xlink:href="#H"/><use transform="matrix(0.05,0,0,0.05,10,0)" xlink:href="#M"/><use transform="matrix(0.05,0,0,0.05,20,0)" xlink:href="#I"/><use transform="matrix(0.05,0,0,0.05,25,0)" xlink:href="#af"/><use transform="matrix(0.05,0,0,0.05,35,0)" xlink:href="#G"/><use transform="matrix(0.05,0,0,0.05,45,0)" xlink:href="#N"/><use transform="matrix(0.05,0,0,0.05,55,0)" xlink:href="#I"/><use transform="matrix(0.05,0,0,0.05,60,0)" xlink:href="#P"/><use transform="matrix(0.05,0,0,0.05,63.95,0)" xlink:href="#K"/><use transform="matrix(0.05,0,0,0.05,72.95,0)" xlink:href="#H"/><use transform="matrix(0.05,0,0,0.05,82.95,0)" xlink:href="#I"/><use transform="matrix(0.05,0,0,0.05,87.95,0)" xlink:href="#G"/></g><g id="C"><use transform="matrix(0.1851851851851852,0,0,0.1851851851851852,0,0)" xlink:href="#E"/><use transform="matrix(0.1851851851851852,0,0,0.1851851851851852,47.96296296296297,0)" xlink:href="#F"/><use transform="matrix(0.1851851851851852,0,0,0.1851851851851852,70,0)" xlink:href="#G"/><use transform="matrix(0.1851851851851852,0,0,0.1851851851851852,107.03703703703705,0)" xlink:href="#H"/><use transform="matrix(0.1851851851851852,0,0,0.1851851851851852,144.07407407407408,0)" xlink:href="#I"/><use transform="matrix(0.1851851851851852,0,0,0.1851851851851852,162.5925925925926,0)" xlink:href="#G"/></g><g id="D"><use transform="matrix(0.1851851851851852,0,0,0.1851851851851852,0,0)" xlink:href="#J"/><use transform="matrix(0.1851851851851852,0,0,0.1851851851851852,44.44444444444445,0)" xlink:href="#K"/><use transform="matrix(0.1851851851851852,0,0,0.1851851851851852,77.77777777777779,0)" xlink:href="#K"/><use transform="matrix(0.1851851851851852,0,0,0.1851851851851852,111.11111111111113,0)" xlink:href="#L"/><use transform="matrix(0.1851851851851852,0,0,0.1851851851851852,148.14814814814815,0)" xlink:href="#M"/><use transform="matrix(0.1851851851851852,0,0,0.1851851851851852,185.1851851851852,0)" xlink:href="#N"/><use transform="matrix(0.1851851851851852,0,0,0.1851851851851852,222.22222222222226,0)" xlink:href="#I"/></g></defs></g></svg>